{
  "source": "C:\\Users\\Peter\\Desktop\\stuff\\MIUN\\quantitative_research\\video_compression\\videos\\BVI-HD\\BVI-HD_CDVL_videos\\ORIG\\KineticFastPainting_1920x1080_60fps.mp4",
  "output": "C:\\Users\\Peter\\Desktop\\stuff\\MIUN\\quantitative_research\\video_compression\\compressed_videos\\BVI-HD\\h264\\8\\KineticFastPainting_1920x1080_60fps_h264.mp4",
  "codec": "h264",
  "ok": "Input #0, mov,mp4,m4a,3gp,3g2,mj2, from 'C:\\Users\\Peter\\Desktop\\stuff\\MIUN\\quantitative_research\\video_compression\\videos\\BVI-HD\\BVI-HD_CDVL_videos\\ORIG\\KineticFastPainting_1920x1080_60fps.mp4':\n  Metadata:\n    major_brand     : isom\n    minor_version   : 512\n    compatible_brands: isomiso2avc1mp41\n    encoder         : Lavf54.28.101\n  Duration: 00:00:05.00, start: 0.000000, bitrate: 477980 kb/s\n  Stream #0:0[0x1](und): Video: h264 (High 4:4:4 Predictive) (avc1 / 0x31637661), yuv420p(progressive), 1920x1080, 477974 kb/s, 60 fps, 60 tbr, 60 tbn (default)\n    Metadata:\n      handler_name    : VideoHandler\n      vendor_id       : [0][0][0][0]\n[out#0/mp4 @ 0000019b34409cc0] Codec AVOption b:a (set bitrate (in bits/s)) has not been used for any stream. The most likely reason is either wrong type (e.g. a video option with no video streams) or that it is a private option of some decoder which was not actually used for any stream.\nStream mapping:\n  Stream #0:0 -> #0:0 (h264 (native) -> h264 (libx264))\nPress [q] to stop, [?] for help\n[libx264 @ 0000019b3441bc80] using cpu capabilities: MMX2 SSE2Fast SSSE3 SSE4.2 AVX FMA3 BMI2 AVX2\n[libx264 @ 0000019b3441bc80] profile High, level 5.0, 4:2:0, 8-bit\n[libx264 @ 0000019b3441bc80] 264 - core 165 r3222 b35605a - H.264/MPEG-4 AVC codec - Copyleft 2003-2025 - http://www.videolan.org/x264.html - options: cabac=1 ref=5 deblock=1:0:0 analyse=0x3:0x113 me=hex subme=8 psy=1 psy_rd=1.00:0.00 mixed_ref=1 me_range=16 chroma_me=1 trellis=2 8x8dct=1 cqm=0 deadzone=21,11 fast_pskip=1 chroma_qp_offset=-2 threads=18 lookahead_threads=3 sliced_threads=0 nr=0 decimate=1 interlaced=0 bluray_compat=0 constrained_intra=0 bframes=3 b_pyramid=2 b_adapt=1 b_bias=0 direct=3 weightb=1 open_gop=0 weightp=2 keyint=250 keyint_min=25 scenecut=40 intra_refresh=0 rc_lookahead=50 rc=cbr mbtree=1 bitrate=8000 ratetol=1.0 qcomp=0.60 qpmin=0 qpmax=69 qpstep=4 vbv_maxrate=8000 vbv_bufsize=8000 nal_hrd=none filler=0 ip_ratio=1.40 aq=1:1.00\nOutput #0, mp4, to 'C:\\Users\\Peter\\Desktop\\stuff\\MIUN\\quantitative_research\\video_compression\\compressed_videos\\BVI-HD\\h264\\8\\KineticFastPainting_1920x1080_60fps_h264.mp4':\n  Metadata:\n    major_brand     : isom\n    minor_version   : 512\n    compatible_brands: isomiso2avc1mp41\n    encoder         : Lavf62.3.100\n  Stream #0:0(und): Video: h264 (avc1 / 0x31637661), yuv420p(tv, progressive), 1920x1080, q=2-31, 8000 kb/s, 60 fps, 15360 tbn (default)\n    Metadata:\n      encoder         : Lavc62.11.100 libx264\n      handler_name    : VideoHandler\n      vendor_id       : [0][0][0][0]\n    Side data:\n      cpb: bitrate max/min/avg: 8000000/0/8000000 buffer size: 8000000 vbv_delay: N/A\nframe=    0 fps=0.0 q=0.0 size=       0KiB time=N/A bitrate=N/A speed=N/A elapsed=0:00:00.51    \nframe=    0 fps=0.0 q=0.0 size=       0KiB time=N/A bitrate=N/A speed=N/A elapsed=0:00:01.02    \nframe=    0 fps=0.0 q=0.0 size=       0KiB time=N/A bitrate=N/A speed=N/A elapsed=0:00:01.60    \nframe=    3 fps=1.3 q=42.0 size=       0KiB time=00:00:00.01 bitrate=  23.0kbits/s speed=0.0074x elapsed=0:00:02.25    \nframe=   16 fps=5.6 q=40.0 size=     256KiB time=00:00:00.15 bitrate=13983.6kbits/s speed=0.0525x elapsed=0:00:02.85    \nframe=   34 fps=9.8 q=37.0 size=     512KiB time=00:00:00.51 bitrate=8118.7kbits/s speed=0.148x elapsed=0:00:03.48    \nframe=   54 fps= 13 q=37.0 size=     768KiB time=00:00:00.78 bitrate=8032.1kbits/s speed=0.193x elapsed=0:00:04.06    \nframe=   67 fps= 14 q=37.0 size=    1024KiB time=00:00:01.08 bitrate=7743.7kbits/s speed=0.233x elapsed=0:00:04.64    \nframe=   74 fps= 14 q=38.0 size=    1024KiB time=00:00:01.20 bitrate=6990.8kbits/s speed=0.229x elapsed=0:00:05.24    \nframe=   89 fps= 15 q=39.0 size=    1280KiB time=00:00:01.45 bitrate=7231.8kbits/s speed=0.248x elapsed=0:00:05.84    \nframe=   98 fps= 15 q=39.0 size=    1536KiB time=00:00:01.60 bitrate=7864.6kbits/s speed=0.249x elapsed=0:00:06.43    \nframe=  117 fps= 17 q=39.0 size=    1792KiB time=00:00:01.90 bitrate=7726.6kbits/s speed=0.27x elapsed=0:00:07.02    \nframe=  136 fps= 18 q=37.0 size=    2048KiB time=00:00:02.16 bitrate=7743.5kbits/s speed=0.283x elapsed=0:00:07.64    \nframe=  152 fps= 18 q=37.0 size=    2304KiB time=00:00:02.40 bitrate=7864.5kbits/s speed=0.287x elapsed=0:00:08.35    \nframe=  163 fps= 18 q=36.0 size=    2560KiB time=00:00:02.66 bitrate=7864.5kbits/s speed=0.294x elapsed=0:00:09.05    \nframe=  184 fps= 19 q=38.0 size=    2816KiB time=00:00:02.98 bitrate=7732.6kbits/s speed=0.308x elapsed=0:00:09.67    \nframe=  195 fps= 19 q=41.0 size=    3072KiB time=00:00:03.20 bitrate=7864.4kbits/s speed=0.312x elapsed=0:00:10.24    \nframe=  202 fps= 19 q=41.0 size=    3328KiB time=00:00:03.33 bitrate=8179.0kbits/s speed=0.309x elapsed=0:00:10.78    \nframe=  219 fps= 19 q=39.0 size=    3328KiB time=00:00:03.53 bitrate=7716.0kbits/s speed=0.311x elapsed=0:00:11.35    \nframe=  235 fps= 20 q=37.0 size=    3584KiB time=00:00:03.83 bitrate=7659.3kbits/s speed=0.322x elapsed=0:00:11.91    \nframe=  258 fps= 21 q=37.0 size=    4096KiB time=00:00:04.26 bitrate=7864.4kbits/s speed=0.342x elapsed=0:00:12.46    \nframe=  274 fps= 21 q=36.0 size=    4352KiB time=00:00:04.51 bitrate=7893.4kbits/s speed=0.346x elapsed=0:00:13.06    \nframe=  284 fps= 21 q=-1.0 size=    4608KiB time=00:00:04.70 bitrate=8031.7kbits/s speed=0.344x elapsed=0:00:13.64    \nframe=  297 fps= 21 q=-1.0 size=    4864KiB time=00:00:04.91 bitrate=8104.3kbits/s speed=0.346x elapsed=0:00:14.19    \n[mp4 @ 0000019b3441a600] Starting second pass: moving the moov atom to the beginning of the file\n[out#0/mp4 @ 0000019b34409cc0] video:4956KiB audio:0KiB subtitle:0KiB other streams:0KiB global headers:0KiB muxing overhead: 0.068080%\nframe=  300 fps= 21 q=-1.0 Lsize=    4959KiB time=00:00:04.96 bitrate=8179.9kbits/s speed=0.349x elapsed=0:00:14.23    \n[libx264 @ 0000019b3441bc80] frame I:2     Avg QP:32.39  size: 65394\n[libx264 @ 0000019b3441bc80] frame P:210   Avg QP:36.88  size: 20485\n[libx264 @ 0000019b3441bc80] frame B:88    Avg QP:40.37  size:  7290\n[libx264 @ 0000019b3441bc80] consecutive B-frames: 50.7% 30.0%  2.0% 17.3%\n[libx264 @ 0000019b3441bc80] mb I  I16..4:  2.2% 92.0%  5.8%\n[libx264 @ 0000019b3441bc80] mb P  I16..4:  3.1% 17.0%  0.2%  P16..4: 39.4%  4.2%  3.4%  0.0%  0.0%    skip:32.7%\n[libx264 @ 0000019b3441bc80] mb B  I16..4:  0.3%  1.9%  0.0%  B16..8: 29.8%  3.6%  0.4%  direct: 1.0%  skip:63.0%  L0:42.8% L1:53.7% BI: 3.5%\n[libx264 @ 0000019b3441bc80] 8x8 transform intra:84.0% inter:96.0%\n[libx264 @ 0000019b3441bc80] direct mvs  spatial:89.8% temporal:10.2%\n[libx264 @ 0000019b3441bc80] coded y,uvDC,uvAC intra: 49.3% 55.1% 10.1% inter: 12.7% 12.7% 0.1%\n[libx264 @ 0000019b3441bc80] i16 v,h,dc,p: 24% 24%  8% 44%\n[libx264 @ 0000019b3441bc80] i8 v,h,dc,ddl,ddr,vr,hd,vl,hu: 12%  6%  7%  9% 14% 14% 13% 13% 11%\n[libx264 @ 0000019b3441bc80] i4 v,h,dc,ddl,ddr,vr,hd,vl,hu: 13%  5%  4%  8% 24% 19% 13%  7%  9%\n[libx264 @ 0000019b3441bc80] i8c dc,h,v,p: 65% 13% 12% 10%\n[libx264 @ 0000019b3441bc80] Weighted P-Frames: Y:32.9% UV:14.8%\n[libx264 @ 0000019b3441bc80] ref P L0: 59.5% 23.5%  7.5%  4.2%  3.0%  1.9%  0.4%\n[libx264 @ 0000019b3441bc80] ref B L0: 89.2%  6.2%  3.6%  1.0%\n[libx264 @ 0000019b3441bc80] ref B L1: 99.2%  0.8%\n[libx264 @ 0000019b3441bc80] kb/s:8118.64\n",
  "seconds": 14.537812232971191,
  "probe_out": {}
}